# xmcd CD database file
#
# Track frame offsets:
#	150
#	31260
#	46202
#	64655
#	79512
#	103942
#	132460
#	134615
#	155675
#	165300
#	176202
#	192625
#	216957
#
# Disc length: 3504 seconds
#
# Revision: 1
# Processed by: cddbd v1.5.1PL0 Copyright (c) Steve Scherf et al.
# Submitted via: CDex 1.50Beta7
#
DISCID=bd0dae0d
DTITLE=Eddie Condon - The Town Hall Concerts Volume 7 [CD2/2)
DYEAR=1944
DGENRE=Jazz
TTITLE0=September In Rain
TTITLE1=I Got Rhythm
TTITLE2=I've Been Around
TTITLE3=The Lady's In Love With You
TTITLE4=Old Folks
TTITLE5=Uncle Sam's Blues into Impromptu Ensemble
TTITLE6=Teaser (Markin' Friends)
TTITLE7=I Found A New Baby
TTITLE8=Little Rock Getaway
TTITLE9=Mories Of You
TTITLE10=The Sheik Of Araby
TTITLE11=Baby, Won't You Please Come Home?
TTITLE12=Impromptu Ensemble
EXTD=YEAR: 1944
EXTT0=
EXTT1=
EXTT2=
EXTT3=
EXTT4=
EXTT5=
EXTT6=
EXTT7=
EXTT8=
EXTT9=
EXTT10=
EXTT11=
EXTT12=
PLAYORDER=
